<?xml version="1.0" standalone="no"?>
<!DOCTYPE svg PUBLIC "-//W3C//DTD SVG 20010904//EN"
 "http://www.w3.org/TR/2001/REC-SVG-20010904/DTD/svg10.dtd">
<svg version="1.0" xmlns="http://www.w3.org/2000/svg"
 width="225.000000pt" height="225.000000pt" viewBox="0 0 225.000000 225.000000"
 preserveAspectRatio="xMidYMid meet">
<metadata>
Created by potrace 1.11, written by Peter Selinger 2001-2013
</metadata>
<g transform="translate(0.000000,225.000000) scale(0.100000,-0.100000)"
fill="#000000" stroke="none">
<path d="M797 1572 c-34 -37 -37 -71 -37 -418 0 -333 1 -345 20 -364 17 -17
31 -20 78 -18 55 3 56 4 63 35 26 127 171 179 269 96 37 -30 60 -72 60 -108
l0 -25 153 0 c85 0 195 3 245 6 l90 7 7 36 c10 53 81 118 137 126 84 13 179
-51 194 -130 3 -20 11 -34 18 -32 7 2 12 48 14 135 l3 132 -173 2 -173 3 -3
78 c-2 50 1 84 9 93 8 10 35 14 92 14 l81 0 -39 40 -39 40 -122 0 -122 0 -4
109 c-3 100 -5 112 -27 135 l-24 26 -377 0 c-346 0 -378 -1 -393 -18z m358
-116 c16 -11 26 -10 63 6 75 34 160 -3 181 -77 26 -95 -43 -214 -177 -307
l-43 -30 -37 25 c-112 74 -192 186 -192 266 0 85 67 148 145 136 22 -3 49 -12
60 -19z"/>
<path d="M147 1304 c-4 -4 -7 -13 -7 -21 0 -10 47 -13 241 -13 224 0 240 1
237 18 -3 15 -23 17 -234 20 -127 1 -233 -1 -237 -4z"/>
<path d="M220 1135 c0 -13 29 -15 200 -15 171 0 200 2 200 15 0 13 -29 15
-200 15 -171 0 -200 -2 -200 -15z"/>
<path d="M315 990 c-15 -25 13 -30 156 -30 142 0 149 1 149 20 0 19 -7 20
-149 20 -89 0 -152 -4 -156 -10z"/>
<path d="M1022 880 c-70 -43 -77 -136 -16 -190 68 -59 169 -29 195 59 21 71
-40 151 -116 151 -16 0 -45 -9 -63 -20z"/>
<path d="M1854 884 c-78 -38 -85 -157 -12 -208 29 -21 102 -20 134 0 76 50 69
170 -12 209 -40 19 -71 19 -110 -1z"/>
</g>
</svg>
